<?xml version="1.0" encoding="iso-8859-1"?>
<!-- Generator: Adobe Illustrator 16.0.4, SVG Export Plug-In . SVG Version: 6.00 Build 0)  -->
<!DOCTYPE svg PUBLIC "-//W3C//DTD SVG 1.1//EN" "http://www.w3.org/Graphics/SVG/1.1/DTD/svg11.dtd">
<svg version="1.1" id="Capa_1" xmlns="http://www.w3.org/2000/svg" xmlns:xlink="http://www.w3.org/1999/xlink" x="0px" y="0px"
	 width="42px" height="40px" viewBox="0 0 42 40" style="enable-background:new 0 0 42 40;" xml:space="preserve">
<g id="_x34_33._Network">
	<g>
		<path d="M38,20h-4V10c0-2.21-1.791-4-4-4H20V4c0-2.209-1.791-4-4-4H4C1.791,0,0,1.791,0,4v8c0,2.209,1.791,4,4,4h12
			c2.209,0,4-1.791,4-4v-2h10v10h-4c-2.209,0-4,1.791-4,4v8c0,2.209,1.791,4,4,4h12c2.209,0,4-1.791,4-4v-8
			C42,21.791,40.209,20,38,20z M16,12H4V4h12V12z M38,32H26v-8h4h4h4V32z M6,20h8v-2H6V20z M28,40h8v-2h-8V40z"/>
	</g>
</g>
<g>
</g>
<g>
</g>
<g>
</g>
<g>
</g>
<g>
</g>
<g>
</g>
<g>
</g>
<g>
</g>
<g>
</g>
<g>
</g>
<g>
</g>
<g>
</g>
<g>
</g>
<g>
</g>
<g>
</g>
</svg>
