<?xml version="1.0" encoding="iso-8859-1"?>
<!-- Generator: Adobe Illustrator 16.0.4, SVG Export Plug-In . SVG Version: 6.00 Build 0)  -->
<!DOCTYPE svg PUBLIC "-//W3C//DTD SVG 1.1//EN" "http://www.w3.org/Graphics/SVG/1.1/DTD/svg11.dtd">
<svg version="1.1" id="Capa_1" xmlns="http://www.w3.org/2000/svg" xmlns:xlink="http://www.w3.org/1999/xlink" x="0px" y="0px"
	 width="40px" height="37.947px" viewBox="0 0 40 37.947" style="enable-background:new 0 0 40 37.947;" xml:space="preserve">
<g id="_x37_8._Messages">
	<g>
		<path d="M20,13c-1.657,0-3,1.343-3,3c0,1.656,1.343,3,3,3c1.656,0,3-1.344,3-3C23,14.343,21.656,13,20,13z M20,0
			C8.954,0,0,7.163,0,15.999c0,5.919,4.027,11.075,10,13.843v6.157c0,2.21,1.113,2.598,2.486,0.867l4.186-5.105
			C17.757,31.906,18.863,32,20,32c11.045,0,20-7.164,20-16.001C40,7.163,31.045,0,20,0z M20,27.999c-8.837,0-16-5.372-16-12
			C4,9.372,11.163,4,20,4c8.836,0,16,5.372,16,11.999C36,22.627,28.836,27.999,20,27.999z M28,13c-1.657,0-3,1.343-3,3
			c0,1.656,1.343,3,3,3c1.656,0,3-1.344,3-3C31,14.343,29.656,13,28,13z M12,13c-1.657,0-3,1.343-3,3c0,1.656,1.343,3,3,3
			c1.656,0,3-1.344,3-3C15,14.343,13.656,13,12,13z"/>
	</g>
</g>
<g>
</g>
<g>
</g>
<g>
</g>
<g>
</g>
<g>
</g>
<g>
</g>
<g>
</g>
<g>
</g>
<g>
</g>
<g>
</g>
<g>
</g>
<g>
</g>
<g>
</g>
<g>
</g>
<g>
</g>
</svg>
