<?xml version="1.0" encoding="iso-8859-1"?>
<!-- Generator: Adobe Illustrator 16.0.4, SVG Export Plug-In . SVG Version: 6.00 Build 0)  -->
<!DOCTYPE svg PUBLIC "-//W3C//DTD SVG 1.1//EN" "http://www.w3.org/Graphics/SVG/1.1/DTD/svg11.dtd">
<svg version="1.1" id="Capa_1" xmlns="http://www.w3.org/2000/svg" xmlns:xlink="http://www.w3.org/1999/xlink" x="0px" y="0px"
	 width="35.553px" height="39.022px" viewBox="0 0 35.553 39.022" style="enable-background:new 0 0 35.553 39.022;"
	 xml:space="preserve">
<g id="_x32_35._Key">
	<g>
		<path d="M31.452,4.097c-5.467-5.462-14.331-5.462-19.799,0C6.944,8.8,6.303,16.017,9.705,21.418l-8.533,8.533
			c-1.562,1.562-1.562,4.095,0,5.656h0.001l-0.001,0.001L4,38.437c0.781,0.781,2.048,0.781,2.829,0l2.828-2.828
			c0.781-0.781,0.781-2.048,0-2.829l-1.414-1.414l5.666-5.665c5.429,3.541,12.776,2.935,17.543-1.827
			C36.92,18.412,36.92,9.558,31.452,4.097z M27.21,19.657c-3.124,3.124-8.189,3.124-11.313,0c-3.125-3.124-3.125-8.189,0-11.313
			c3.124-3.125,8.189-3.125,11.313,0C30.334,11.468,30.334,16.533,27.21,19.657z"/>
	</g>
</g>
<g>
</g>
<g>
</g>
<g>
</g>
<g>
</g>
<g>
</g>
<g>
</g>
<g>
</g>
<g>
</g>
<g>
</g>
<g>
</g>
<g>
</g>
<g>
</g>
<g>
</g>
<g>
</g>
<g>
</g>
</svg>
