<?xml version="1.0" encoding="iso-8859-1"?>
<!-- Generator: Adobe Illustrator 16.0.4, SVG Export Plug-In . SVG Version: 6.00 Build 0)  -->
<!DOCTYPE svg PUBLIC "-//W3C//DTD SVG 1.1//EN" "http://www.w3.org/Graphics/SVG/1.1/DTD/svg11.dtd">
<svg version="1.1" id="Capa_1" xmlns="http://www.w3.org/2000/svg" xmlns:xlink="http://www.w3.org/1999/xlink" x="0px" y="0px"
	 width="46px" height="38px" viewBox="0 0 46 38" style="enable-background:new 0 0 46 38;" xml:space="preserve">
<g id="_x37_0._Add_Message">
	<g>
		<path d="M32,23.918c-0.034,0.029-0.073,0.054-0.107,0.082H32V23.918z M26.121,27.067c-1.887,0.591-3.947,0.932-6.121,0.932
			c-8.837,0-16-5.372-16-11.999C4,9.372,11.163,4,20,4c8.836,0,16,5.372,16,12c0,0.691-0.095,1.365-0.245,2.025
			C35.838,18.02,35.916,18,36,18c1.429,0,2.674,0.756,3.382,1.883C39.771,18.638,40,17.342,40,16c0-8.837-8.955-16-20-16
			C8.954,0,0,7.163,0,16c0,5.918,4.028,11.074,10,13.842v6.157c0,2.21,1.113,2.598,2.486,0.867l4.187-5.105
			C17.757,31.906,18.864,32,20,32c2.562,0,5-0.401,7.249-1.108C26.483,30.163,26,29.14,26,28C26,27.677,26.048,27.368,26.121,27.067
			z M42,25.999h-4.001v-4c0-1.104-0.896-2-2-2c-1.105,0-2,0.896-2,2v4h-4.001c-1.104,0-2,0.896-2,2s0.896,2,2,2H34v4
			c0,1.104,0.895,2,2,2c1.104,0,2-0.896,2-2v-4H42c1.104,0,2-0.896,2-2S43.104,25.999,42,25.999z"/>
	</g>
</g>
<g>
</g>
<g>
</g>
<g>
</g>
<g>
</g>
<g>
</g>
<g>
</g>
<g>
</g>
<g>
</g>
<g>
</g>
<g>
</g>
<g>
</g>
<g>
</g>
<g>
</g>
<g>
</g>
<g>
</g>
</svg>
