<?xml version="1.0" encoding="iso-8859-1"?>
<!-- Generator: Adobe Illustrator 16.0.4, SVG Export Plug-In . SVG Version: 6.00 Build 0)  -->
<!DOCTYPE svg PUBLIC "-//W3C//DTD SVG 1.1//EN" "http://www.w3.org/Graphics/SVG/1.1/DTD/svg11.dtd">
<svg version="1.1" id="Capa_1" xmlns="http://www.w3.org/2000/svg" xmlns:xlink="http://www.w3.org/1999/xlink" x="0px" y="0px"
	 width="48px" height="36px" viewBox="0 0 48 36" style="enable-background:new 0 0 48 36;" xml:space="preserve">
<g id="_x36_9._Add_Message">
	<g>
		<path d="M10,33.999c0,2.21,1.113,2.598,2.486,0.867l5.451-6.867L10,28V33.999z M4,23.999v-20h32v12.556
			C36.59,16.211,37.268,16,38,16s1.41,0.211,2,0.555V3.999C40,1.79,38.209,0,36,0H4C1.791,0,0,1.79,0,3.999v20c0,2.21,1.791,4,4,4
			h13.938h10.617C28.211,27.409,28,26.732,28,26c0-0.733,0.211-1.41,0.556-2.001H4z M44,23.999h-4.001v-4c0-1.104-0.896-2-2-2
			c-1.105,0-2,0.896-2,2v4h-4c-1.105,0-2.001,0.896-2.001,2s0.896,2,2.001,2h4v4c0,1.104,0.895,2,2,2c1.104,0,2-0.896,2-2v-4H44
			c1.104,0,2-0.896,2-2S45.104,23.999,44,23.999z"/>
	</g>
</g>
<g>
</g>
<g>
</g>
<g>
</g>
<g>
</g>
<g>
</g>
<g>
</g>
<g>
</g>
<g>
</g>
<g>
</g>
<g>
</g>
<g>
</g>
<g>
</g>
<g>
</g>
<g>
</g>
<g>
</g>
</svg>
