<?xml version="1.0" encoding="iso-8859-1"?>
<!-- Generator: Adobe Illustrator 16.0.4, SVG Export Plug-In . SVG Version: 6.00 Build 0)  -->
<!DOCTYPE svg PUBLIC "-//W3C//DTD SVG 1.1//EN" "http://www.w3.org/Graphics/SVG/1.1/DTD/svg11.dtd">
<svg version="1.1" id="Capa_1" xmlns="http://www.w3.org/2000/svg" xmlns:xlink="http://www.w3.org/1999/xlink" x="0px" y="0px"
	 width="40.001px" height="39.999px" viewBox="0 0 40.001 39.999" style="enable-background:new 0 0 40.001 39.999;"
	 xml:space="preserve">
<g id="_x36_2._Download">
	<g>
		<path d="M38,18H34.01c-0.003,0-0.006-0.001-0.01-0.001h-6l9.171-9.171C38.734,7.267,38.209,6,36,6h-8V4c0-2.21-1.791-4-4-4h-8
			c-2.209,0-4,1.79-4,4v2H4C1.792,6,1.267,7.267,2.829,8.828L12,17.999H6C5.997,17.999,5.994,18,5.99,18H2c-1.104,0-2,0.895-2,1.999
			s0.896,2,2,2v14c0,2.209,1.791,4,4,4h28c2.209,0,4-1.791,4-4v-14h0c1.105,0,2-0.896,2-2S39.105,18,38,18z M9.657,9.999H16v-6h8v6
			h6.343L20,20.343L9.657,9.999z M34,35.999H6V22h0v-4h6l5.171,5.171c1.562,1.562,4.095,1.562,5.657,0L28,18h6V35.999z"/>
	</g>
</g>
<g>
</g>
<g>
</g>
<g>
</g>
<g>
</g>
<g>
</g>
<g>
</g>
<g>
</g>
<g>
</g>
<g>
</g>
<g>
</g>
<g>
</g>
<g>
</g>
<g>
</g>
<g>
</g>
<g>
</g>
</svg>
