<?xml version="1.0" encoding="iso-8859-1"?>
<!-- Generator: Adobe Illustrator 16.0.4, SVG Export Plug-In . SVG Version: 6.00 Build 0)  -->
<!DOCTYPE svg PUBLIC "-//W3C//DTD SVG 1.1//EN" "http://www.w3.org/Graphics/SVG/1.1/DTD/svg11.dtd">
<svg version="1.1" id="Capa_1" xmlns="http://www.w3.org/2000/svg" xmlns:xlink="http://www.w3.org/1999/xlink" x="0px" y="0px"
	 width="40.001px" height="36px" viewBox="0 0 40.001 36" style="enable-background:new 0 0 40.001 36;" xml:space="preserve">
<g id="_x36_1._Download">
	<g>
		<path d="M38.001,14.001H34.01C34.006,14.001,34.003,14,34,14H24l4.586-4.586C29.367,8.634,29.104,8,28,8h-4V2c0-1.104-0.896-2-2-2
			h-4c-1.104,0-2,0.896-2,2v6h-4c-1.104,0-1.367,0.634-0.586,1.414L16,14H6c-0.003,0-0.006,0.001-0.01,0.001H2
			c-1.104,0-2,0.895-2,1.999s0.896,2,2,2v14c0,2.209,1.791,4,4,4h28c2.209,0,4-1.791,4-4V18h0.001c1.104,0,2-0.896,2-2
			S39.105,14.001,38.001,14.001z M34,32H6V18.001h0v-4h10l2.585,2.585c0.781,0.781,2.047,0.781,2.828,0l2.585-2.585H34V32z"/>
	</g>
</g>
<g>
</g>
<g>
</g>
<g>
</g>
<g>
</g>
<g>
</g>
<g>
</g>
<g>
</g>
<g>
</g>
<g>
</g>
<g>
</g>
<g>
</g>
<g>
</g>
<g>
</g>
<g>
</g>
<g>
</g>
</svg>
