<?xml version="1.0" encoding="iso-8859-1"?>
<!-- Generator: Adobe Illustrator 16.0.4, SVG Export Plug-In . SVG Version: 6.00 Build 0)  -->
<!DOCTYPE svg PUBLIC "-//W3C//DTD SVG 1.1//EN" "http://www.w3.org/Graphics/SVG/1.1/DTD/svg11.dtd">
<svg version="1.1" id="Capa_1" xmlns="http://www.w3.org/2000/svg" xmlns:xlink="http://www.w3.org/1999/xlink" x="0px" y="0px"
	 width="40.007px" height="40.007px" viewBox="0 0 40.007 40.007" style="enable-background:new 0 0 40.007 40.007;"
	 xml:space="preserve">
<g id="_x33_59._Previous">
	<g>
		<path d="M30.004,2.684c-9.566-5.523-21.798-2.246-27.32,7.32c-5.523,9.565-2.246,21.797,7.32,27.32
			c9.565,5.522,21.798,2.245,27.32-7.32C42.848,20.438,39.569,8.206,30.004,2.684z M33.86,28.003
			c-4.419,7.653-14.204,10.275-21.856,5.856C4.352,29.441,1.729,19.656,6.147,12.004c4.418-7.653,14.204-10.275,21.856-5.856
			C35.656,10.565,38.278,20.351,33.86,28.003z M25.293,15.046l-5.308,3.211l0.01-2.247c0.005-1.104-0.758-1.536-1.702-0.964
			l-6.571,3.976c-0.945,0.571-0.943,1.495,0.005,2.062l6.51,3.898c0.947,0.567,1.72,0.132,1.725-0.973l0.01-2.181l5.266,3.153
			c0.947,0.567,1.72,0.132,1.725-0.973l0.034-8C27,14.905,26.237,14.474,25.293,15.046z"/>
	</g>
</g>
<g>
</g>
<g>
</g>
<g>
</g>
<g>
</g>
<g>
</g>
<g>
</g>
<g>
</g>
<g>
</g>
<g>
</g>
<g>
</g>
<g>
</g>
<g>
</g>
<g>
</g>
<g>
</g>
<g>
</g>
</svg>
