<?xml version="1.0" encoding="iso-8859-1"?>
<!-- Generator: Adobe Illustrator 16.0.4, SVG Export Plug-In . SVG Version: 6.00 Build 0)  -->
<!DOCTYPE svg PUBLIC "-//W3C//DTD SVG 1.1//EN" "http://www.w3.org/Graphics/SVG/1.1/DTD/svg11.dtd">
<svg version="1.1" id="Capa_1" xmlns="http://www.w3.org/2000/svg" xmlns:xlink="http://www.w3.org/1999/xlink" x="0px" y="0px"
	 width="40px" height="42px" viewBox="0 0 40 42" style="enable-background:new 0 0 40 42;" xml:space="preserve">
<g id="_x34_24._Server">
	<g>
		<path d="M36,26H4c-2.21,0-4,1.791-4,4v8c0,2.209,1.79,4,4,4h32c2.209,0,4-1.791,4-4v-8C40,27.791,38.209,26,36,26z M36,38H4v-8h32
			V38z M32,36c1.104,0,2-0.896,2-2c0-1.105-0.896-2-2-2s-2,0.895-2,2C30,35.104,30.896,36,32,36z M36,7.999H4
			C1.79,7.999,0,9.79,0,12v8c0,2.209,1.79,4,4,4h32c2.209,0,4-1.791,4-4v-8C40,9.79,38.209,7.999,36,7.999z M36,20H4v-8h32V20z
			 M32,18c1.104,0,2-0.896,2-2c0-1.105-0.896-2-2-2s-2,0.895-2,2C30,17.104,30.896,18,32,18z M38,0H2C0.896,0,0,0.895,0,2v2
			c0,1.104,0.896,2,2,2h36c1.104,0,2-0.896,2-2V2C40,0.895,39.104,0,38,0z"/>
	</g>
</g>
<g>
</g>
<g>
</g>
<g>
</g>
<g>
</g>
<g>
</g>
<g>
</g>
<g>
</g>
<g>
</g>
<g>
</g>
<g>
</g>
<g>
</g>
<g>
</g>
<g>
</g>
<g>
</g>
<g>
</g>
</svg>
