<?xml version="1.0" encoding="iso-8859-1"?>
<!-- Generator: Adobe Illustrator 16.0.4, SVG Export Plug-In . SVG Version: 6.00 Build 0)  -->
<!DOCTYPE svg PUBLIC "-//W3C//DTD SVG 1.1//EN" "http://www.w3.org/Graphics/SVG/1.1/DTD/svg11.dtd">
<svg version="1.1" id="Capa_1" xmlns="http://www.w3.org/2000/svg" xmlns:xlink="http://www.w3.org/1999/xlink" x="0px" y="0px"
	 width="32px" height="40px" viewBox="0 0 32 40" style="enable-background:new 0 0 32 40;" xml:space="preserve">
<g id="_x32_21._Calculator">
	<g>
		<path d="M22,22c-1.104,0-2,0.896-2,2c0,1.104,0.896,2,2,2c1.105,0,2-0.896,2-2C24,22.896,23.105,22,22,22z M22,16
			c-1.104,0-2,0.895-2,2c0,1.104,0.896,2,2,2c1.105,0,2-0.896,2-2C24,16.895,23.105,16,22,16z M16,22c-1.104,0-2,0.896-2,2
			c0,1.104,0.896,2,2,2s2-0.896,2-2C18,22.896,17.104,22,16,22z M16,16c-1.104,0-2,0.895-2,2c0,1.104,0.895,1.999,2,1.999
			s2-0.896,2-1.999C18,16.895,17.104,16,16,16z M10,12h12c1.105,0,2-0.896,2-2c0-1.104-0.895-2-2-2H10c-1.104,0-2,0.896-2,2
			C8,11.104,8.896,12,10,12z M10,31.999L10,31.999c1.105,0,2-0.896,2-1.999c0-1.105-0.895-2-2-2h0c-1.104,0-2,0.895-2,2
			C8,31.104,8.896,31.999,10,31.999z M28,0H4C1.791,0,0,1.79,0,4v32c0,2.209,1.791,4,4,4h24c2.209,0,4-1.791,4-4V4
			C32,1.79,30.209,0,28,0z M28,36H4V4h24V36z M16,28c-1.104,0-2,0.895-2,2c0,1.104,0.895,1.999,2,1.999s2-0.896,2-1.999
			C18,28.895,17.104,28,16,28z M10,26L10,26c1.105,0,2-0.896,2-2c0-1.104-0.895-2-2-2h0c-1.104,0-2,0.896-2,2
			C8,25.104,8.896,26,10,26z M10,20L10,20c1.105,0,2-0.896,2-2c0-1.105-0.895-2-2-2h0c-1.104,0-2,0.895-2,2C8,19.104,8.896,20,10,20
			z M22,28c-1.104,0-2,0.895-2,2c0,1.104,0.896,1.999,2,1.999c1.105,0,2-0.896,2-1.999C24,28.895,23.105,28,22,28z"/>
	</g>
</g>
<g>
</g>
<g>
</g>
<g>
</g>
<g>
</g>
<g>
</g>
<g>
</g>
<g>
</g>
<g>
</g>
<g>
</g>
<g>
</g>
<g>
</g>
<g>
</g>
<g>
</g>
<g>
</g>
<g>
</g>
</svg>
