<?xml version="1.0" encoding="iso-8859-1"?>
<!-- Generator: Adobe Illustrator 16.0.4, SVG Export Plug-In . SVG Version: 6.00 Build 0)  -->
<!DOCTYPE svg PUBLIC "-//W3C//DTD SVG 1.1//EN" "http://www.w3.org/Graphics/SVG/1.1/DTD/svg11.dtd">
<svg version="1.1" id="Capa_1" xmlns="http://www.w3.org/2000/svg" xmlns:xlink="http://www.w3.org/1999/xlink" x="0px" y="0px"
	 width="39.172px" height="40px" viewBox="0 0 39.172 40" style="enable-background:new 0 0 39.172 40;" xml:space="preserve">
<g id="_x32_30._Outgoing_Call">
	<g>
		<path d="M38.586,18.586l-7.171-7.172C30.634,10.633,30,10.896,30,12v2h-2c-1.104,0-2,0.896-2,2v8c0,1.104,0.896,2,2,2h2v2
			c0,1.104,0.634,1.366,1.415,0.586l7.171-7.172C39.367,20.633,39.367,19.367,38.586,18.586z M20.001,0h-16C1.791,0,0,1.79,0,4
			v31.999C0,38.209,1.791,40,4.001,40h16c2.209,0,4-1.791,4-4.001V4C24.001,1.79,22.21,0,20.001,0z M12.001,38
			c-1.104,0-2-0.896-2-2.001c0-1.104,0.896-2,2-2s2,0.896,2,2C14.001,37.104,13.105,38,12.001,38z M20.001,32h-16V4h16V32z"/>
	</g>
</g>
<g>
</g>
<g>
</g>
<g>
</g>
<g>
</g>
<g>
</g>
<g>
</g>
<g>
</g>
<g>
</g>
<g>
</g>
<g>
</g>
<g>
</g>
<g>
</g>
<g>
</g>
<g>
</g>
<g>
</g>
</svg>
