<?xml version="1.0" encoding="iso-8859-1"?>
<!-- Generator: Adobe Illustrator 16.0.4, SVG Export Plug-In . SVG Version: 6.00 Build 0)  -->
<!DOCTYPE svg PUBLIC "-//W3C//DTD SVG 1.1//EN" "http://www.w3.org/Graphics/SVG/1.1/DTD/svg11.dtd">
<svg version="1.1" id="Capa_1" xmlns="http://www.w3.org/2000/svg" xmlns:xlink="http://www.w3.org/1999/xlink" x="0px" y="0px"
	 width="40px" height="39.999px" viewBox="0 0 40 39.999" style="enable-background:new 0 0 40 39.999;" xml:space="preserve">
<g id="_x32_31._Incoming_Call">
	<g>
		<path d="M20,0H4C1.79,0,0,1.79,0,4v31.999c0,2.21,1.79,4,4,4h16c2.209,0,4-1.79,4-4V4C24,1.79,22.209,0,20,0z M12,38
			c-1.104,0-2-0.896-2-2.001c0-1.104,0.896-2,2-2s2,0.896,2,2C14,37.104,13.104,38,12,38z M20,32H4V4h16V32z M38,14h-2v-2
			c0-1.104-0.633-1.367-1.414-0.586l-7.172,7.172c-0.781,0.781-0.781,2.047,0,2.828l7.172,7.172C35.367,29.366,36,29.104,36,28v-2h2
			c1.104,0,2-0.896,2-2v-8C40,14.896,39.104,14,38,14z"/>
	</g>
</g>
<g>
</g>
<g>
</g>
<g>
</g>
<g>
</g>
<g>
</g>
<g>
</g>
<g>
</g>
<g>
</g>
<g>
</g>
<g>
</g>
<g>
</g>
<g>
</g>
<g>
</g>
<g>
</g>
<g>
</g>
</svg>
