<?xml version="1.0" encoding="iso-8859-1"?>
<!-- Generator: Adobe Illustrator 16.0.4, SVG Export Plug-In . SVG Version: 6.00 Build 0)  -->
<!DOCTYPE svg PUBLIC "-//W3C//DTD SVG 1.1//EN" "http://www.w3.org/Graphics/SVG/1.1/DTD/svg11.dtd">
<svg version="1.1" id="Capa_1" xmlns="http://www.w3.org/2000/svg" xmlns:xlink="http://www.w3.org/1999/xlink" x="0px" y="0px"
	 width="40px" height="40px" viewBox="0 0 40 40" style="enable-background:new 0 0 40 40;" xml:space="preserve">
<g id="_x34_23._Button">
	<g>
		<path d="M20,16c2.209,0,4-1.791,4-4c0-2.21-1.791-4-4-4c-2.21,0-4,1.79-4,4C16,14.209,17.791,16,20,16z M20,23.999
			c-2.21,0-4,1.792-4,4.001s1.79,4,4,4c2.209,0,4-1.791,4-4S22.209,23.999,20,23.999z M20,0C8.955,0,0,8.954,0,20
			c0,11.045,8.955,20,20,20c11.045,0,20-8.955,20-20C40,8.954,31.045,0,20,0z M20,35.999c-8.837,0-16-7.163-16-15.999
			c0-8.838,7.164-16,16-16C28.836,4,36,11.162,36,20C36,28.836,28.836,35.999,20,35.999z M28,16c-2.209,0-4,1.79-4,3.999
			c0,2.21,1.791,4,4,4s4-1.79,4-4C32,17.79,30.209,16,28,16z M12,16c-2.209,0-4,1.79-4,3.999c0,2.21,1.791,4,4,4c2.209,0,4-1.79,4-4
			C16,17.79,14.209,16,12,16z"/>
	</g>
</g>
<g>
</g>
<g>
</g>
<g>
</g>
<g>
</g>
<g>
</g>
<g>
</g>
<g>
</g>
<g>
</g>
<g>
</g>
<g>
</g>
<g>
</g>
<g>
</g>
<g>
</g>
<g>
</g>
<g>
</g>
</svg>
