<?xml version="1.0" encoding="iso-8859-1"?>
<!-- Generator: Adobe Illustrator 16.0.4, SVG Export Plug-In . SVG Version: 6.00 Build 0)  -->
<!DOCTYPE svg PUBLIC "-//W3C//DTD SVG 1.1//EN" "http://www.w3.org/Graphics/SVG/1.1/DTD/svg11.dtd">
<svg version="1.1" id="Capa_1" xmlns="http://www.w3.org/2000/svg" xmlns:xlink="http://www.w3.org/1999/xlink" x="0px" y="0px"
	 width="40px" height="37.947px" viewBox="0 0 40 37.947" style="enable-background:new 0 0 40 37.947;" xml:space="preserve">
<g id="_x36_8._Message">
	<g>
		<path d="M20,0C8.954,0,0,7.163,0,15.999c0,6.027,4.17,11.271,10.323,14H10v6c0,2.21,1.113,2.598,2.486,0.867l4.064-5.12
			C17.673,31.902,18.821,32,20,32c11.046,0,20-7.164,20-16.001C40,7.163,31.046,0,20,0z M20,27.999c-8.837,0-16-5.372-16-12
			C4,9.372,11.163,4,20,4c8.836,0,16,5.372,16,11.999C36,22.627,28.836,27.999,20,27.999z"/>
	</g>
</g>
<g>
</g>
<g>
</g>
<g>
</g>
<g>
</g>
<g>
</g>
<g>
</g>
<g>
</g>
<g>
</g>
<g>
</g>
<g>
</g>
<g>
</g>
<g>
</g>
<g>
</g>
<g>
</g>
<g>
</g>
</svg>
