<?xml version="1.0" encoding="iso-8859-1"?>
<!-- Generator: Adobe Illustrator 16.0.4, SVG Export Plug-In . SVG Version: 6.00 Build 0)  -->
<!DOCTYPE svg PUBLIC "-//W3C//DTD SVG 1.1//EN" "http://www.w3.org/Graphics/SVG/1.1/DTD/svg11.dtd">
<svg version="1.1" id="Capa_1" xmlns="http://www.w3.org/2000/svg" xmlns:xlink="http://www.w3.org/1999/xlink" x="0px" y="0px"
	 width="40px" height="40px" viewBox="0 0 40 40" style="enable-background:new 0 0 40 40;" xml:space="preserve">
<g id="_x34_26._Server">
	<g>
		<path d="M38,0H2C0.896,0,0,0.895,0,2v2c0,1.104,0.896,2,2,2h36c1.104,0,2-0.896,2-2V2C40,0.895,39.104,0,38,0z M36,24H4
			c-2.209,0-4,1.791-4,4v8c0,2.209,1.791,4,4,4h32c2.209,0,4-1.791,4-4v-8C40,25.791,38.209,24,36,24z M36,36H4v-8h32V36z M38,16H2
			c-1.104,0-2,0.895-2,2v2c0,1.104,0.896,2,2,2h36c1.104,0,2-0.896,2-2v-2C40,16.895,39.104,16,38,16z M38,8H2c-1.104,0-2,0.895-2,2
			v2c0,1.104,0.896,2,2,2h36c1.104,0,2-0.896,2-2v-2C40,8.895,39.104,8,38,8z M32,34c1.104,0,2-0.896,2-2c0-1.105-0.896-2-2-2
			s-2,0.895-2,2C30,33.104,30.896,34,32,34z"/>
	</g>
</g>
<g>
</g>
<g>
</g>
<g>
</g>
<g>
</g>
<g>
</g>
<g>
</g>
<g>
</g>
<g>
</g>
<g>
</g>
<g>
</g>
<g>
</g>
<g>
</g>
<g>
</g>
<g>
</g>
<g>
</g>
</svg>
