<?xml version="1.0" encoding="iso-8859-1"?>
<!-- Generator: Adobe Illustrator 16.0.4, SVG Export Plug-In . SVG Version: 6.00 Build 0)  -->
<!DOCTYPE svg PUBLIC "-//W3C//DTD SVG 1.1//EN" "http://www.w3.org/Graphics/SVG/1.1/DTD/svg11.dtd">
<svg version="1.1" id="Capa_1" xmlns="http://www.w3.org/2000/svg" xmlns:xlink="http://www.w3.org/1999/xlink" x="0px" y="0px"
	 width="40px" height="40px" viewBox="0 0 40 40" style="enable-background:new 0 0 40 40;" xml:space="preserve">
<g id="_x34_21._Wheel">
	<g>
		<path d="M40,20c0-1.459-0.171-2.875-0.468-4.244l0.108-0.035l-1.236-3.804l-0.111,0.036C35.449,5.502,29.313,0.828,22,0.101V0h-4
			v0.101c-7.312,0.727-13.449,5.4-16.292,11.853l-0.11-0.036l-1.236,3.805l0.106,0.034C0.171,17.126,0,18.542,0,20
			c0,5.931,2.597,11.243,6.698,14.905l-0.072,0.099l3.236,2.352l0.069-0.095C12.891,38.991,16.324,40,20,40
			c3.676,0,7.109-1.009,10.069-2.739l0.069,0.095l3.236-2.352l-0.072-0.099C37.403,31.242,40,25.931,40,20z M22,4.139
			c5.534,0.691,10.181,4.207,12.47,9.057l-7.727,2.511c-1.074-1.683-2.758-2.932-4.743-3.444V4.139z M20,16c2.209,0,4,1.791,4,4
			s-1.791,4-4,4c-2.209,0-4-1.791-4-4S17.791,16,20,16z M18,4.139v8.124c-1.984,0.512-3.668,1.761-4.742,3.443L5.53,13.195
			C7.819,8.346,12.467,4.83,18,4.139z M9.061,31.653C5.953,28.734,4,24.6,4,20c0-1.027,0.098-2.031,0.283-3.004l7.742,2.516
			C12.015,19.674,12,19.835,12,20c0,1.934,0.687,3.708,1.829,5.091L9.061,31.653z M20,36c-2.797,0-5.424-0.722-7.711-1.983
			l4.78-6.579C17.977,27.797,18.964,28,20,28s2.023-0.203,2.932-0.562l4.78,6.579C25.424,35.278,22.797,36,20,36z M30.94,31.653
			l-4.769-6.562C27.314,23.708,28,21.934,28,20c0-0.165-0.015-0.326-0.025-0.489l7.742-2.516C35.902,17.969,36,18.973,36,20
			C36,24.6,34.048,28.734,30.94,31.653z"/>
	</g>
</g>
<g>
</g>
<g>
</g>
<g>
</g>
<g>
</g>
<g>
</g>
<g>
</g>
<g>
</g>
<g>
</g>
<g>
</g>
<g>
</g>
<g>
</g>
<g>
</g>
<g>
</g>
<g>
</g>
<g>
</g>
</svg>
