<?xml version="1.0" encoding="iso-8859-1"?>
<!-- Generator: Adobe Illustrator 16.0.4, SVG Export Plug-In . SVG Version: 6.00 Build 0)  -->
<!DOCTYPE svg PUBLIC "-//W3C//DTD SVG 1.1//EN" "http://www.w3.org/Graphics/SVG/1.1/DTD/svg11.dtd">
<svg version="1.1" id="Capa_1" xmlns="http://www.w3.org/2000/svg" xmlns:xlink="http://www.w3.org/1999/xlink" x="0px" y="0px"
	 width="35.585px" height="27.152px" viewBox="0 0 35.585 27.152" style="enable-background:new 0 0 35.585 27.152;"
	 xml:space="preserve">
<g id="_x33_48._Shuffle">
	<g>
		<path d="M0,4.575c0-0.001,0-0.002,0-0.004C0,4.57,0,4.569,0,4.568V4.575z M33.752,18.524c-0.267-1.071-1.116-1.308-1.897-0.526
			l-1.304,1.304l-5.722-5.729l5.725-5.725l1.305,1.305c0.781,0.781,1.631,0.545,1.897-0.526l1.769-7.108
			c0.267-1.072-0.386-1.726-1.458-1.459l-7.115,1.766c-1.072,0.266-1.309,1.114-0.527,1.896l1.301,1.3l-5.723,5.723l-7.991-8V2.575
			h-0.168l-0.01-0.01l-0.01,0.01H2c-1.104,0-1.998,0.894-2,1.996c0.002,1.104,0.896,1.996,2,1.996h10.155l7.008,7.017l-6.991,6.99H2
			c-1.104,0-2,0.896-2,2v0.001c0,1.104,0.896,2,2,2h12v-0.173l7.989-7.988l5.721,5.728l-1.291,1.29
			c-0.781,0.781-0.546,1.63,0.526,1.896l7.118,1.766c1.071,0.267,1.725-0.387,1.458-1.459L33.752,18.524z"/>
	</g>
</g>
<g>
</g>
<g>
</g>
<g>
</g>
<g>
</g>
<g>
</g>
<g>
</g>
<g>
</g>
<g>
</g>
<g>
</g>
<g>
</g>
<g>
</g>
<g>
</g>
<g>
</g>
<g>
</g>
<g>
</g>
</svg>
