<?xml version="1.0" encoding="iso-8859-1"?>
<!-- Generator: Adobe Illustrator 16.0.4, SVG Export Plug-In . SVG Version: 6.00 Build 0)  -->
<!DOCTYPE svg PUBLIC "-//W3C//DTD SVG 1.1//EN" "http://www.w3.org/Graphics/SVG/1.1/DTD/svg11.dtd">
<svg version="1.1" id="Capa_1" xmlns="http://www.w3.org/2000/svg" xmlns:xlink="http://www.w3.org/1999/xlink" x="0px" y="0px"
	 width="39.551px" height="31.997px" viewBox="0 0 39.551 31.997" style="enable-background:new 0 0 39.551 31.997;"
	 xml:space="preserve">
<g id="_x33_49._Shuffle">
	<g>
		<path d="M36.378,0l-8.413,7.946l11.586,3.002L36.378,0z M36.277,31.997l3.249-11.005l-11.56,3.096L36.277,31.997z M32.275,22.901
			l3.977-1.047c-1.148-2.265-2.722-4.23-4.58-5.857c1.858-1.629,3.432-3.599,4.58-5.866l-3.977-1.049
			c-1.019,1.774-2.371,3.3-3.942,4.535c-4.419-2.497-9.803-3.348-15.116-1.948c-1.718,0.452-3.306,1.133-4.777,1.964
			c-1.935-1.52-3.485-3.441-4.521-5.617c-1.38-3.015-5.38-1.015-3.308,2.281c1.117,2.148,2.65,4.075,4.496,5.699
			c-1.874,1.647-3.425,3.606-4.546,5.791c-2.021,3.214,1.979,5.214,3.31,2.282c1.036-2.213,2.604-4.167,4.566-5.707
			c1.472,0.833,3.061,1.516,4.78,1.969c5.315,1.401,10.701,0.548,15.122-1.955C29.907,19.61,31.257,21.131,32.275,22.901z
			 M14.25,16.535c-0.57-0.15-1.124-0.332-1.662-0.538c0.538-0.205,1.091-0.388,1.662-0.538c3.403-0.896,6.836-0.627,9.883,0.538
			C21.085,17.163,17.653,17.433,14.25,16.535z"/>
	</g>
</g>
<g>
</g>
<g>
</g>
<g>
</g>
<g>
</g>
<g>
</g>
<g>
</g>
<g>
</g>
<g>
</g>
<g>
</g>
<g>
</g>
<g>
</g>
<g>
</g>
<g>
</g>
<g>
</g>
<g>
</g>
</svg>
