<?xml version="1.0" encoding="iso-8859-1"?>
<!-- Generator: Adobe Illustrator 16.0.4, SVG Export Plug-In . SVG Version: 6.00 Build 0)  -->
<!DOCTYPE svg PUBLIC "-//W3C//DTD SVG 1.1//EN" "http://www.w3.org/Graphics/SVG/1.1/DTD/svg11.dtd">
<svg version="1.1" id="Capa_1" xmlns="http://www.w3.org/2000/svg" xmlns:xlink="http://www.w3.org/1999/xlink" x="0px" y="0px"
	 width="28px" height="43.999px" viewBox="0 0 28 43.999" style="enable-background:new 0 0 28 43.999;" xml:space="preserve">
<g id="_x32_36._Key">
	<g>
		<path d="M28,14c0-7.732-6.269-14-14-14C6.268,0,0,6.268,0,14c0,6.701,4.711,12.295,11,13.67v12.329c0,2.21,1.791,4,4,4h4
			c1.104,0,2-0.896,2-2v-4c0-1.104-0.896-2-2-2h-2V27.67C23.289,26.295,28,20.701,28,14z M14,22c-4.419,0-8-3.582-8-8
			c0-4.419,3.581-8,8-8c4.418,0,8,3.581,8,8C22,18.418,18.418,22,14,22z"/>
	</g>
</g>
<g>
</g>
<g>
</g>
<g>
</g>
<g>
</g>
<g>
</g>
<g>
</g>
<g>
</g>
<g>
</g>
<g>
</g>
<g>
</g>
<g>
</g>
<g>
</g>
<g>
</g>
<g>
</g>
<g>
</g>
</svg>
