<?xml version="1.0" encoding="iso-8859-1"?>
<!-- Generator: Adobe Illustrator 16.0.4, SVG Export Plug-In . SVG Version: 6.00 Build 0)  -->
<!DOCTYPE svg PUBLIC "-//W3C//DTD SVG 1.1//EN" "http://www.w3.org/Graphics/SVG/1.1/DTD/svg11.dtd">
<svg version="1.1" id="Capa_1" xmlns="http://www.w3.org/2000/svg" xmlns:xlink="http://www.w3.org/1999/xlink" x="0px" y="0px"
	 width="40px" height="40px" viewBox="0 0 40 40" style="enable-background:new 0 0 40 40;" xml:space="preserve">
<g id="_x34_32._Network">
	<g>
		<path d="M34,28c-2.611,0-4.827,1.671-5.651,4H22V22h6.349c0.824,2.329,3.039,4,5.651,4c3.313,0,6-2.687,6-6
			c0-3.314-2.687-6.001-6-6.001c-2.612,0-4.827,1.672-5.651,4.001H22V8c0-2.209-1.791-4-4-4h-6.349C10.827,1.671,8.611,0,6,0
			C2.687,0,0,2.686,0,5.999C0,9.313,2.687,12,6,12c2.611,0,4.826-1.671,5.651-4H18v24c0,2.209,1.791,4,4,4h6.349
			c0.825,2.328,3.04,4,5.651,4c3.313,0,6-2.688,6-6C40,30.686,37.313,28,34,28z M34,18c1.104,0,2,0.895,2,2c0,1.104-0.896,2-2,2
			s-2-0.896-2-2C32,18.895,32.896,18,34,18z M6,8C4.896,8,4,7.104,4,5.999S4.896,4,6,4s2,0.895,2,1.999S7.104,8,6,8z M34,36
			c-1.104,0-2-0.896-2-2c0-1.105,0.896-2,2-2s2,0.895,2,2C36,35.104,35.104,36,34,36z"/>
	</g>
</g>
<g>
</g>
<g>
</g>
<g>
</g>
<g>
</g>
<g>
</g>
<g>
</g>
<g>
</g>
<g>
</g>
<g>
</g>
<g>
</g>
<g>
</g>
<g>
</g>
<g>
</g>
<g>
</g>
<g>
</g>
</svg>
