<?xml version="1.0" encoding="iso-8859-1"?>
<!-- Generator: Adobe Illustrator 16.0.4, SVG Export Plug-In . SVG Version: 6.00 Build 0)  -->
<!DOCTYPE svg PUBLIC "-//W3C//DTD SVG 1.1//EN" "http://www.w3.org/Graphics/SVG/1.1/DTD/svg11.dtd">
<svg version="1.1" id="Capa_1" xmlns="http://www.w3.org/2000/svg" xmlns:xlink="http://www.w3.org/1999/xlink" x="0px" y="0px"
	 width="38px" height="32.408px" viewBox="0 0 38 32.408" style="enable-background:new 0 0 38 32.408;" xml:space="preserve">
<g id="_x33_43._Playlist">
	<g>
		<path d="M6.304,3.145l-4.608-2.88C0.759-0.321,0,0.1,0,1.204v6c0,1.104,0.759,1.525,1.696,0.94l4.608-2.88
			C7.241,4.679,7.241,3.729,6.304,3.145z M36,1.204H12c-1.105,0-2,0.896-2,2v2c0,1.104,0.895,2,2,2h24c1.104,0,2-0.896,2-2v-2
			C38,2.1,37.105,1.204,36,1.204z M1.696,20.145l4.608-2.88c0.937-0.586,0.895-1.461-0.093-1.955l-4.422-2.211
			C0.801,12.605,0,13.1,0,14.204v5C0,20.309,0.759,20.729,1.696,20.145z M36,13.204H12c-1.105,0-2,0.896-2,2v2c0,1.104,0.895,2,2,2
			h24c1.104,0,2-0.896,2-2v-2C38,14.1,37.105,13.204,36,13.204z M6.304,27.145l-4.608-2.88C0.759,23.679,0,24.1,0,25.204v6
			c0,1.104,0.759,1.525,1.696,0.94l4.608-2.88C7.241,28.68,7.241,27.73,6.304,27.145z M36,25.204H12c-1.105,0-2,0.896-2,2v2
			c0,1.104,0.895,2,2,2h24c1.104,0,2-0.896,2-2v-2C38,26.1,37.105,25.204,36,25.204z"/>
	</g>
</g>
<g>
</g>
<g>
</g>
<g>
</g>
<g>
</g>
<g>
</g>
<g>
</g>
<g>
</g>
<g>
</g>
<g>
</g>
<g>
</g>
<g>
</g>
<g>
</g>
<g>
</g>
<g>
</g>
<g>
</g>
</svg>
