<?xml version="1.0" encoding="iso-8859-1"?>
<!-- Generator: Adobe Illustrator 16.0.4, SVG Export Plug-In . SVG Version: 6.00 Build 0)  -->
<!DOCTYPE svg PUBLIC "-//W3C//DTD SVG 1.1//EN" "http://www.w3.org/Graphics/SVG/1.1/DTD/svg11.dtd">
<svg version="1.1" id="Capa_1" xmlns="http://www.w3.org/2000/svg" xmlns:xlink="http://www.w3.org/1999/xlink" x="0px" y="0px"
	 width="42px" height="40px" viewBox="0 0 42 40" style="enable-background:new 0 0 42 40;" xml:space="preserve">
<g id="_x33_45._CD_Cover">
	<g>
		<path d="M14,20c0-5.522,4.477-9.999,10-9.999v-6C24,1.791,22.209,0,20,0H4C1.791,0,0,1.791,0,4.001V36c0,2.21,1.791,4,4,4h16
			c2.209,0,4-1.79,4-4v-5.999C18.477,30.001,14,25.523,14,20z M20,36.001H4v-32h16v2.588C14.218,8.311,10,13.659,10,20
			c0,6.342,4.218,11.69,10,13.413V36.001z M26,2.118v4.041C32.782,7.133,38,12.949,38,20c0,7.052-5.218,12.868-12,13.841v4.042
			C34.999,36.887,42,29.265,42,20C42,10.736,34.999,3.114,26,2.118z M30,20c0-3.313-2.687-5.999-6-5.999S18,16.687,18,20
			c0,3.314,2.687,6,6,6S30,23.314,30,20z M24,22c-1.104,0-2-0.895-2-2c0-1.104,0.896-2,2-2s2,0.896,2,2C26,21.105,25.104,22,24,22z"
			/>
	</g>
</g>
<g>
</g>
<g>
</g>
<g>
</g>
<g>
</g>
<g>
</g>
<g>
</g>
<g>
</g>
<g>
</g>
<g>
</g>
<g>
</g>
<g>
</g>
<g>
</g>
<g>
</g>
<g>
</g>
<g>
</g>
</svg>
