<?xml version="1.0" encoding="iso-8859-1"?>
<!-- Generator: Adobe Illustrator 16.0.4, SVG Export Plug-In . SVG Version: 6.00 Build 0)  -->
<!DOCTYPE svg PUBLIC "-//W3C//DTD SVG 1.1//EN" "http://www.w3.org/Graphics/SVG/1.1/DTD/svg11.dtd">
<svg version="1.1" id="Capa_1" xmlns="http://www.w3.org/2000/svg" xmlns:xlink="http://www.w3.org/1999/xlink" x="0px" y="0px"
	 width="30px" height="48.382px" viewBox="0 0 30 48.382" style="enable-background:new 0 0 30 48.382;" xml:space="preserve">
<g id="_x34_82._Gesture_-_Pull_to_Refresh">
	<g>
		<path d="M23,39.21h-2v-2c0-1.104-0.896-2-2-2h-8c-1.104,0-2,0.896-2,2v2H7c-1.104,0-1.367,0.634-0.585,1.415l7.171,7.171
			c0.781,0.781,2.047,0.781,2.828,0l7.172-7.171C24.367,39.844,24.104,39.21,23,39.21z M27.009,9.224
			C26,8.211,25.785,7.42,24.394,8.377c-0.404,0.277-0.851,0.585-1.236,0.85c-1.157,0.984,1.459,3.553,0.868,2.707
			C25.269,13.713,26,15.875,26,18.21c0,6.075-4.925,11-11,11c-6.075,0-11-4.925-11-11c0-5.391,3.881-9.867,9-10.81V3.359
			C5.664,4.339,0,10.605,0,18.21c0,8.284,6.716,15,15,15s15-6.716,15-15C30,14.839,28.887,11.729,27.009,9.224z M14.768,10.189
			l6.51-3.898c0.948-0.568,0.95-1.491,0.005-2.063l-6.571-3.976c-0.945-0.571-1.708-0.14-1.703,0.965l0.035,8
			C13.048,10.321,13.82,10.757,14.768,10.189z"/>
	</g>
</g>
<g>
</g>
<g>
</g>
<g>
</g>
<g>
</g>
<g>
</g>
<g>
</g>
<g>
</g>
<g>
</g>
<g>
</g>
<g>
</g>
<g>
</g>
<g>
</g>
<g>
</g>
<g>
</g>
<g>
</g>
</svg>
