<?xml version="1.0" encoding="iso-8859-1"?>
<!-- Generator: Adobe Illustrator 16.0.4, SVG Export Plug-In . SVG Version: 6.00 Build 0)  -->
<!DOCTYPE svg PUBLIC "-//W3C//DTD SVG 1.1//EN" "http://www.w3.org/Graphics/SVG/1.1/DTD/svg11.dtd">
<svg version="1.1" id="Capa_1" xmlns="http://www.w3.org/2000/svg" xmlns:xlink="http://www.w3.org/1999/xlink" x="0px" y="0px"
	 width="30px" height="50.001px" viewBox="0 0 30 50.001" style="enable-background:new 0 0 30 50.001;" xml:space="preserve">
<g id="_x33_53._Artist">
	<g>
		<path d="M10,20.001c-5.523,0-10,4.477-10,10v8c0,1.104,0.896,2,2,2s2-0.896,2-2v-8c0-3.314,2.686-6,6-6c3.313,0,6,2.686,6,6v8
			c0,1.104,0.896,2,2,2s2-0.896,2-2v-8C20,24.478,15.522,20.001,10,20.001z M28,6.185V0.001h-2v6.184c-1.163,0.413-2,1.512-2,2.816
			v4c0,1.656,1.343,3,3,3c1.656,0,3-1.344,3-3v-4C30,7.696,29.162,6.598,28,6.185z M10,0C4.477,0,0,4.478,0,10.001
			C0,15.523,4.477,20,10,20c5.522,0,10-4.477,10-9.999C20,4.478,15.522,0,10,0z M10,16.001c-3.314,0-6-2.688-6-6
			C4,6.687,6.686,4,10,4c3.313,0,6,2.687,6,6.001C16,13.313,13.313,16.001,10,16.001z"/>
	</g>
</g>
<g>
</g>
<g>
</g>
<g>
</g>
<g>
</g>
<g>
</g>
<g>
</g>
<g>
</g>
<g>
</g>
<g>
</g>
<g>
</g>
<g>
</g>
<g>
</g>
<g>
</g>
<g>
</g>
<g>
</g>
</svg>
