<?xml version="1.0" encoding="iso-8859-1"?>
<!-- Generator: Adobe Illustrator 16.0.4, SVG Export Plug-In . SVG Version: 6.00 Build 0)  -->
<!DOCTYPE svg PUBLIC "-//W3C//DTD SVG 1.1//EN" "http://www.w3.org/Graphics/SVG/1.1/DTD/svg11.dtd">
<svg version="1.1" id="Capa_1" xmlns="http://www.w3.org/2000/svg" xmlns:xlink="http://www.w3.org/1999/xlink" x="0px" y="0px"
	 width="40px" height="44px" viewBox="0 0 40 44" style="enable-background:new 0 0 40 44;" xml:space="preserve">
<g id="_x33_41._Microphone_Muted">
	<g>
		<path d="M20,34c0-0.766,0.094-1.509,0.257-2.225c-0.396,0.32-0.813,0.618-1.257,0.876V32c0-1.104-0.896-2-2-2s-2,0.896-2,2v1.949
			C14.671,33.982,14.337,34,14,34s-0.671-0.018-1-0.051V32c0-1.104-0.896-2-2-2s-2,0.896-2,2v0.651
			C6.86,31.412,5.235,29.398,4.478,27H10c1.104,0,2-0.896,2-2s-0.896-2-2-2H4v-2h6c1.104,0,2-0.896,2-2s-0.896-2-2-2H4v-2h6
			c1.104,0,2-0.896,2-2s-0.896-2-2-2H4.459C5.215,8.596,6.858,6.589,9,5.348V6c0,1.104,0.896,2,2,2s2-0.896,2-2V4.055
			C13.33,4.022,13.662,4,14,4s0.67,0.022,1,0.055V6c0,1.104,0.896,2,2,2s2-0.896,2-2V5.348c2.142,1.24,3.785,3.248,4.541,5.652H18
			c-1.104,0-2,0.896-2,2s0.896,2,2,2h6v2h-6c-1.104,0-2,0.896-2,2s0.896,2,2,2h6v2h-6c-1.104,0-2,0.896-2,2s0.896,2,2,2h4.865
			c1.368-1.394,3.138-2.392,5.126-2.797C27.992,24.135,28,24.068,28,24V14c0-7.731-6.268-14-14-14C6.268,0,0,6.269,0,14v10
			c0,7.057,5.226,12.878,12.016,13.844C12.012,37.896,12,37.946,12,38v2c0,1.104,0.896,2,2,2c1.105,0,2-0.896,2-2v-2
			c0-0.054-0.012-0.104-0.016-0.156c1.542-0.22,2.997-0.7,4.334-1.378C20.119,35.676,20,34.853,20,34z M30,26c-4.418,0-8,3.582-8,8
			c0,4.419,3.582,8,8,8c4.418,0,8-3.581,8-8C38,29.582,34.418,26,30,26z M30,39c-2.761,0-5-2.238-5-5
			c0-1.019,0.308-1.964,0.832-2.754l6.923,6.923C31.964,38.691,31.019,39,30,39z M34.168,36.755l-6.923-6.923
			C28.036,29.309,28.981,29,30,29c2.762,0,5,2.239,5,5C35,35.019,34.692,35.964,34.168,36.755z"/>
	</g>
</g>
<g>
</g>
<g>
</g>
<g>
</g>
<g>
</g>
<g>
</g>
<g>
</g>
<g>
</g>
<g>
</g>
<g>
</g>
<g>
</g>
<g>
</g>
<g>
</g>
<g>
</g>
<g>
</g>
<g>
</g>
</svg>
