<?xml version="1.0" encoding="iso-8859-1"?>
<!-- Generator: Adobe Illustrator 16.0.4, SVG Export Plug-In . SVG Version: 6.00 Build 0)  -->
<!DOCTYPE svg PUBLIC "-//W3C//DTD SVG 1.1//EN" "http://www.w3.org/Graphics/SVG/1.1/DTD/svg11.dtd">
<svg version="1.1" id="Capa_1" xmlns="http://www.w3.org/2000/svg" xmlns:xlink="http://www.w3.org/1999/xlink" x="0px" y="0px"
	 width="40px" height="45px" viewBox="0 0 40 45" style="enable-background:new 0 0 40 45;" xml:space="preserve">
<g id="_x33_42._Microphone_Muted">
	<g>
		<path d="M14,34c-4.477,0-8.267-2.942-9.541-7H10c1.104,0,2-0.896,2-2s-0.896-2-2-2H4v-2h6c1.104,0,2-0.896,2-2s-0.896-2-2-2H4v-2
			h6c1.104,0,2-0.896,2-2s-0.896-2-2-2H4.459C5.734,6.943,9.523,4,14,4c4.478,0,8.266,2.943,9.541,7H18c-1.104,0-2,0.896-2,2
			s0.896,2,2,2h6v2h-6c-1.104,0-2,0.896-2,2s0.896,2,2,2h6v2h-6c-1.104,0-2,0.896-2,2s0.896,2,2,2h5.541
			c-0.059,0.188-0.129,0.371-0.199,0.554c1.282-1.146,2.854-1.975,4.602-2.34C27.979,24.813,28,24.409,28,24V14
			c0-7.731-6.268-14-14-14S0,6.269,0,14v10c0,7.057,5.226,12.878,12.016,13.844C12.012,37.896,12,37.946,12,38v2
			c0,1.104,0.896,2,2,2s2-0.896,2-2v-2c0-0.054-0.012-0.104-0.016-0.156c1.471-0.209,2.862-0.658,4.149-1.287
			C20.054,36.049,20,35.531,20,35.001c0-1.251,0.24-2.443,0.659-3.547C18.891,33.036,16.559,34,14,34z M30,27
			c-4.418,0-8,3.582-8,8.001C22,39.419,25.582,43,30,43c4.418,0,8-3.581,8-7.999C38,30.582,34.418,27,30,27z M30,40
			c-2.761,0-5-2.238-5-5c0-1.019,0.308-1.964,0.832-2.754l6.923,6.923C31.964,39.691,31.019,40,30,40z M34.168,37.755l-6.923-6.923
			C28.036,30.309,28.981,30,30,30c2.762,0,5,2.239,5,5C35,36.019,34.692,36.964,34.168,37.755z"/>
	</g>
</g>
<g>
</g>
<g>
</g>
<g>
</g>
<g>
</g>
<g>
</g>
<g>
</g>
<g>
</g>
<g>
</g>
<g>
</g>
<g>
</g>
<g>
</g>
<g>
</g>
<g>
</g>
<g>
</g>
<g>
</g>
</svg>
