<?xml version="1.0" encoding="iso-8859-1"?>
<!-- Generator: Adobe Illustrator 16.0.4, SVG Export Plug-In . SVG Version: 6.00 Build 0)  -->
<!DOCTYPE svg PUBLIC "-//W3C//DTD SVG 1.1//EN" "http://www.w3.org/Graphics/SVG/1.1/DTD/svg11.dtd">
<svg version="1.1" id="Capa_1" xmlns="http://www.w3.org/2000/svg" xmlns:xlink="http://www.w3.org/1999/xlink" x="0px" y="0px"
	 width="40.007px" height="40.007px" viewBox="0 0 40.007 40.007" style="enable-background:new 0 0 40.007 40.007;"
	 xml:space="preserve">
<g id="_x33_60._Next">
	<g>
		<path d="M28.286,19.021l-6.571-3.976c-0.945-0.572-1.707-0.141-1.703,0.964l0.01,2.247l-5.307-3.211
			c-0.945-0.572-1.707-0.141-1.703,0.964l0.035,8c0.004,1.104,0.776,1.54,1.724,0.973l5.267-3.153l0.01,2.181
			c0.004,1.104,0.776,1.54,1.724,0.973l6.511-3.898C29.229,20.517,29.23,19.593,28.286,19.021z M37.324,10.004
			c-5.522-9.566-17.755-12.844-27.32-7.32C0.438,8.206-2.84,20.438,2.684,30.004c5.522,9.565,17.754,12.843,27.32,7.32
			C39.569,31.801,42.847,19.569,37.324,10.004z M28.004,33.859c-7.653,4.419-17.438,1.797-21.856-5.856
			c-4.419-7.652-1.797-17.438,5.856-21.855c7.652-4.419,17.438-1.797,21.856,5.856C38.278,19.656,35.656,29.441,28.004,33.859z"/>
	</g>
</g>
<g>
</g>
<g>
</g>
<g>
</g>
<g>
</g>
<g>
</g>
<g>
</g>
<g>
</g>
<g>
</g>
<g>
</g>
<g>
</g>
<g>
</g>
<g>
</g>
<g>
</g>
<g>
</g>
<g>
</g>
</svg>
