<?xml version="1.0" encoding="iso-8859-1"?>
<!-- Generator: Adobe Illustrator 16.0.4, SVG Export Plug-In . SVG Version: 6.00 Build 0)  -->
<!DOCTYPE svg PUBLIC "-//W3C//DTD SVG 1.1//EN" "http://www.w3.org/Graphics/SVG/1.1/DTD/svg11.dtd">
<svg version="1.1" id="Capa_1" xmlns="http://www.w3.org/2000/svg" xmlns:xlink="http://www.w3.org/1999/xlink" x="0px" y="0px"
	 width="56.568px" height="56.568px" viewBox="0 0 56.568 56.568" style="enable-background:new 0 0 56.568 56.568;"
	 xml:space="preserve">
<g id="_x34_34._Progress">
	<g>
		<path d="M28.284,8.284c-11.046,0-20,8.954-20,20s8.954,20,20,20c11.045,0,20-8.954,20-20S39.329,8.284,28.284,8.284z
			 M39.599,39.598L28.284,28.284L39.599,39.598c-2.896,2.896-6.896,4.688-11.314,4.688c-8.837,0-16-7.164-16-16
			c0-8.837,7.163-16.001,16-16.001v16l11.313-11.313c2.896,2.896,4.687,6.896,4.687,11.314
			C44.284,32.703,42.493,36.702,39.599,39.598z"/>
	</g>
</g>
<g>
</g>
<g>
</g>
<g>
</g>
<g>
</g>
<g>
</g>
<g>
</g>
<g>
</g>
<g>
</g>
<g>
</g>
<g>
</g>
<g>
</g>
<g>
</g>
<g>
</g>
<g>
</g>
<g>
</g>
</svg>
