<?xml version="1.0" encoding="iso-8859-1"?>
<!-- Generator: Adobe Illustrator 16.0.4, SVG Export Plug-In . SVG Version: 6.00 Build 0)  -->
<!DOCTYPE svg PUBLIC "-//W3C//DTD SVG 1.1//EN" "http://www.w3.org/Graphics/SVG/1.1/DTD/svg11.dtd">
<svg version="1.1" id="Capa_1" xmlns="http://www.w3.org/2000/svg" xmlns:xlink="http://www.w3.org/1999/xlink" x="0px" y="0px"
	 width="32px" height="44.001px" viewBox="0 0 32 44.001" style="enable-background:new 0 0 32 44.001;" xml:space="preserve">
<g id="_x32_28._Mobile">
	<g>
		<path d="M22,26.001c-1.104,0-2,0.895-2,2c0,1.104,0.896,2,2,2s2-0.896,2-2C24,26.896,23.104,26.001,22,26.001z M22,32
			c-1.104,0-2,0.896-2,2.001C20,35.104,20.896,36,22,36s2-0.896,2-1.999C24,32.896,23.104,32,22,32z M16,32.001
			c-1.104,0-2,0.895-2,2C14,35.104,14.896,36,16,36s2-0.896,2-1.999C18,32.896,17.104,32.001,16,32.001z M16,26.001
			c-1.104,0-2,0.895-2,2c0,1.104,0.896,2,2,2s2-0.896,2-2C18,26.896,17.104,26.001,16,26.001z M10,22h12c1.104,0,2-0.896,2-2v-5.999
			c0-1.105-0.896-2-2-2H10c-1.104,0-2,0.895-2,2V20C8,21.104,8.896,22,10,22z M28,4.001H8V2c0-1.104-0.896-2-2-2S4,0.896,4,2v2.001
			c-2.21,0-4,1.79-4,4v32c0,2.209,1.79,4,4,4h24c2.209,0,4-1.791,4-4v-32C32,5.791,30.209,4.001,28,4.001z M28,40.001H4v-32h24
			V40.001z M10,30.001c1.104,0,2-0.896,2-2c0-1.105-0.896-2-2-2s-2,0.895-2,2C8,29.104,8.896,30.001,10,30.001z M10,36
			c1.104,0,2-0.896,2-1.999c0-1.105-0.896-2-2-2s-2,0.895-2,2C8,35.104,8.896,36,10,36z"/>
	</g>
</g>
<g>
</g>
<g>
</g>
<g>
</g>
<g>
</g>
<g>
</g>
<g>
</g>
<g>
</g>
<g>
</g>
<g>
</g>
<g>
</g>
<g>
</g>
<g>
</g>
<g>
</g>
<g>
</g>
<g>
</g>
</svg>
