<?xml version="1.0" encoding="iso-8859-1"?>
<!-- Generator: Adobe Illustrator 16.0.4, SVG Export Plug-In . SVG Version: 6.00 Build 0)  -->
<!DOCTYPE svg PUBLIC "-//W3C//DTD SVG 1.1//EN" "http://www.w3.org/Graphics/SVG/1.1/DTD/svg11.dtd">
<svg version="1.1" id="Capa_1" xmlns="http://www.w3.org/2000/svg" xmlns:xlink="http://www.w3.org/1999/xlink" x="0px" y="0px"
	 width="42px" height="38.938px" viewBox="0 0 42 38.938" style="enable-background:new 0 0 42 38.938;" xml:space="preserve">
<g id="_x37_5._Messages">
	<g>
		<path d="M33.681,16.678c-0.308,1.309-0.843,2.548-1.56,3.699C35.551,21.224,38,23.418,38,25.999c0,3.314-4.029,6-9,6
			c-4.073,0-7.51-1.804-8.62-4.279c-1.093,0.182-2.223,0.279-3.38,0.279c-0.243,0-0.479-0.021-0.72-0.03
			c0.706,2.7,2.805,5.01,5.72,6.448v3.582c0,1.104,0.497,1.256,1.111,0.338l1.888-2.825c1.262,0.313,2.604,0.487,4.001,0.487
			c7.18,0,13-4.477,13-10C42,21.748,38.545,18.125,33.681,16.678z M32,14c0-6.628-6.716-12.001-15-12.001C8.715,1.999,2,7.372,2,14
			c0,4.604,3.244,8.597,8,10.609v5.39c0,1.104,0.538,1.284,1.201,0.401l3.434-4.565c0.772,0.098,1.559,0.164,2.365,0.164
			C25.284,25.999,32,20.627,32,14z M6,14c0-4.419,4.925-8,11-8s11,3.581,11,8c0,4.418-4.925,7.999-11,7.999S6,18.418,6,14z"/>
	</g>
</g>
<g>
</g>
<g>
</g>
<g>
</g>
<g>
</g>
<g>
</g>
<g>
</g>
<g>
</g>
<g>
</g>
<g>
</g>
<g>
</g>
<g>
</g>
<g>
</g>
<g>
</g>
<g>
</g>
<g>
</g>
</svg>
