<?xml version="1.0" encoding="iso-8859-1"?>
<!-- Generator: Adobe Illustrator 16.0.4, SVG Export Plug-In . SVG Version: 6.00 Build 0)  -->
<!DOCTYPE svg PUBLIC "-//W3C//DTD SVG 1.1//EN" "http://www.w3.org/Graphics/SVG/1.1/DTD/svg11.dtd">
<svg version="1.1" id="Capa_1" xmlns="http://www.w3.org/2000/svg" xmlns:xlink="http://www.w3.org/1999/xlink" x="0px" y="0px"
	 width="48.284px" height="56.568px" viewBox="0 0 48.284 56.568" style="enable-background:new 0 0 48.284 56.568;"
	 xml:space="preserve">
<g id="_x34_35._Progress">
	<g>
		<path d="M28.284,8.284c-11.046,0-20,8.954-20,20s8.954,20,20,20c11.045,0,20-8.954,20-20S39.329,8.284,28.284,8.284z
			 M44.167,26.426c-0.239-2.067-0.863-4.018-1.814-5.769C43.304,22.408,43.928,24.358,44.167,26.426z M44.251,27.623
			c-0.014-0.326-0.017-0.654-0.05-0.975C44.234,26.969,44.237,27.297,44.251,27.623z M41.97,20.026
			c-0.14-0.229-0.269-0.466-0.418-0.688C41.701,19.561,41.83,19.797,41.97,20.026z M40.797,18.329
			c-0.058-0.072-0.107-0.15-0.167-0.222C40.689,18.179,40.739,18.257,40.797,18.329z M39.599,39.598L28.284,28.284L39.599,39.598
			c-2.896,2.896-6.896,4.688-11.314,4.688c-8.837,0-16-7.164-16-16c0-8.837,7.163-16.001,16-16.001v16h16v0.001
			C44.284,32.703,42.493,36.702,39.599,39.598z"/>
	</g>
</g>
<g>
</g>
<g>
</g>
<g>
</g>
<g>
</g>
<g>
</g>
<g>
</g>
<g>
</g>
<g>
</g>
<g>
</g>
<g>
</g>
<g>
</g>
<g>
</g>
<g>
</g>
<g>
</g>
<g>
</g>
</svg>
