<?xml version="1.0" encoding="iso-8859-1"?>
<!-- Generator: Adobe Illustrator 16.0.4, SVG Export Plug-In . SVG Version: 6.00 Build 0)  -->
<!DOCTYPE svg PUBLIC "-//W3C//DTD SVG 1.1//EN" "http://www.w3.org/Graphics/SVG/1.1/DTD/svg11.dtd">
<svg version="1.1" id="Capa_1" xmlns="http://www.w3.org/2000/svg" xmlns:xlink="http://www.w3.org/1999/xlink" x="0px" y="0px"
	 width="40px" height="38.072px" viewBox="0 0 40 38.072" style="enable-background:new 0 0 40 38.072;" xml:space="preserve">
<g id="_x36_5._Cut">
	<g>
		<path d="M32,22.073c-1.009,0-1.971,0.195-2.86,0.536l-4.752-4.638l8.736-8.526c1.581-1.543,2.862-4.585,2.862-6.794V2.085
			c0-2.209-1.281-2.749-2.862-1.206L20,13.688L6.876,0.879C5.295-0.664,4.013-0.124,4.013,2.085v0.565
			c0,2.209,1.282,5.251,2.863,6.794l8.735,8.525l-4.752,4.638C9.97,22.267,9.009,22.073,8,22.073c-4.419,0-8,3.581-8,8
			c0,4.418,3.581,7.999,8,7.999c4.418,0,8-3.581,8-7.999c0-1.155-0.25-2.25-0.69-3.242L20,22.253l4.69,4.578
			C24.25,27.822,24,28.917,24,30.073c0,4.418,3.581,7.999,8,7.999c4.418,0,8-3.581,8-7.999C40,25.654,36.418,22.073,32,22.073z
			 M8,34.072c-2.209,0-4-1.79-4-3.999c0-2.21,1.791-4,4-4s4,1.79,4,4C12,32.282,10.209,34.072,8,34.072z M32,34.072
			c-2.209,0-4-1.79-4-3.999c0-2.21,1.791-4,4-4s4,1.79,4,4C36,32.282,34.209,34.072,32,34.072z"/>
	</g>
</g>
<g>
</g>
<g>
</g>
<g>
</g>
<g>
</g>
<g>
</g>
<g>
</g>
<g>
</g>
<g>
</g>
<g>
</g>
<g>
</g>
<g>
</g>
<g>
</g>
<g>
</g>
<g>
</g>
<g>
</g>
</svg>
