<?xml version="1.0" encoding="iso-8859-1"?>
<!-- Generator: Adobe Illustrator 16.0.4, SVG Export Plug-In . SVG Version: 6.00 Build 0)  -->
<!DOCTYPE svg PUBLIC "-//W3C//DTD SVG 1.1//EN" "http://www.w3.org/Graphics/SVG/1.1/DTD/svg11.dtd">
<svg version="1.1" id="Capa_1" xmlns="http://www.w3.org/2000/svg" xmlns:xlink="http://www.w3.org/1999/xlink" x="0px" y="0px"
	 width="34px" height="40px" viewBox="0 0 34 40" style="enable-background:new 0 0 34 40;" xml:space="preserve">
<g id="_x32_26._iPad">
	<g>
		<path d="M30,0H4C1.79,0,0,1.79,0,4v32c0,2.209,1.79,4,4,4h26c2.209,0,4-1.791,4-4V4C34,1.79,32.209,0,30,0z M17,38
			c-1.104,0-2-0.896-2-2s0.896-2,2-2s2,0.896,2,2S18.104,38,17,38z M30,31.999H4V4h26V31.999z"/>
	</g>
</g>
<g>
</g>
<g>
</g>
<g>
</g>
<g>
</g>
<g>
</g>
<g>
</g>
<g>
</g>
<g>
</g>
<g>
</g>
<g>
</g>
<g>
</g>
<g>
</g>
<g>
</g>
<g>
</g>
<g>
</g>
</svg>
