<?xml version="1.0" encoding="iso-8859-1"?>
<!-- Generator: Adobe Illustrator 16.0.4, SVG Export Plug-In . SVG Version: 6.00 Build 0)  -->
<!DOCTYPE svg PUBLIC "-//W3C//DTD SVG 1.1//EN" "http://www.w3.org/Graphics/SVG/1.1/DTD/svg11.dtd">
<svg version="1.1" id="Capa_1" xmlns="http://www.w3.org/2000/svg" xmlns:xlink="http://www.w3.org/1999/xlink" x="0px" y="0px"
	 width="40px" height="41.999px" viewBox="0 0 40 41.999" style="enable-background:new 0 0 40 41.999;" xml:space="preserve">
<g id="_x32_34._TV">
	<g>
		<path d="M30,38H10c-1.104,0-2,0.895-2,2c0,1.104,0.896,1.999,2,1.999h20c1.104,0,2-0.896,2-1.999C32,38.895,31.104,38,30,38z
			 M36,0H4C1.791,0,0,1.79,0,4v28c0,2.209,1.791,4,4,4h32c2.209,0,4-1.791,4-4V4C40,1.79,38.209,0,36,0z M34,34
			c-1.104,0-2-0.896-2-2s0.896-2,2-2s2,0.896,2,2S35.104,34,34,34z M36,28H4V4h32V28z"/>
	</g>
</g>
<g>
</g>
<g>
</g>
<g>
</g>
<g>
</g>
<g>
</g>
<g>
</g>
<g>
</g>
<g>
</g>
<g>
</g>
<g>
</g>
<g>
</g>
<g>
</g>
<g>
</g>
<g>
</g>
<g>
</g>
</svg>
