<?xml version="1.0" encoding="iso-8859-1"?>
<!-- Generator: Adobe Illustrator 16.0.4, SVG Export Plug-In . SVG Version: 6.00 Build 0)  -->
<!DOCTYPE svg PUBLIC "-//W3C//DTD SVG 1.1//EN" "http://www.w3.org/Graphics/SVG/1.1/DTD/svg11.dtd">
<svg version="1.1" id="Capa_1" xmlns="http://www.w3.org/2000/svg" xmlns:xlink="http://www.w3.org/1999/xlink" x="0px" y="0px"
	 width="40px" height="30px" viewBox="0 0 40 30" style="enable-background:new 0 0 40 30;" xml:space="preserve">
<g id="_x32_29._Sim_Card">
	<g>
		<path d="M38.586,6.585l-5.172-5.171C32.633,0.633,31.104,0,30,0H4C1.791,0,0,1.79,0,4v22c0,2.209,1.791,4,4,4h32
			c2.209,0,4-1.791,4-4V10C40,8.895,39.366,7.366,38.586,6.585z M36,26H4V4h26l6,6V26z M18,8h-6c-2.209,0-4,1.791-4,4v6
			c0,2.209,1.791,4,4,4h6c2.209,0,4-1.791,4-4v-6C22,9.791,20.209,8,18,8z"/>
	</g>
</g>
<g>
</g>
<g>
</g>
<g>
</g>
<g>
</g>
<g>
</g>
<g>
</g>
<g>
</g>
<g>
</g>
<g>
</g>
<g>
</g>
<g>
</g>
<g>
</g>
<g>
</g>
<g>
</g>
<g>
</g>
</svg>
