<?xml version="1.0" encoding="iso-8859-1"?>
<!-- Generator: Adobe Illustrator 16.0.4, SVG Export Plug-In . SVG Version: 6.00 Build 0)  -->
<!DOCTYPE svg PUBLIC "-//W3C//DTD SVG 1.1//EN" "http://www.w3.org/Graphics/SVG/1.1/DTD/svg11.dtd">
<svg version="1.1" id="Capa_1" xmlns="http://www.w3.org/2000/svg" xmlns:xlink="http://www.w3.org/1999/xlink" x="0px" y="0px"
	 width="40px" height="39.999px" viewBox="0 0 40 39.999" style="enable-background:new 0 0 40 39.999;" xml:space="preserve">
<g id="_x33_47._CD">
	<g>
		<path d="M20,0C8.954,0,0,8.954,0,19.999c0,11.046,8.954,20,20,20s20-8.954,20-20C40,8.954,31.046,0,20,0z M20,36
			c-8.837,0-16-7.164-16-16.001C4,11.163,11.163,4,20,4s16,7.163,16,15.999C36,28.836,28.837,36,20,36z M20,14
			c-3.313,0-6,2.686-6,5.999c0,3.314,2.687,6,6,6s6-2.686,6-6C26,16.686,23.313,14,20,14z M20,21.999c-1.104,0-2-0.895-2-2
			c0-1.104,0.896-2,2-2s2,0.896,2,2C22,21.104,21.104,21.999,20,21.999z"/>
	</g>
</g>
<g>
</g>
<g>
</g>
<g>
</g>
<g>
</g>
<g>
</g>
<g>
</g>
<g>
</g>
<g>
</g>
<g>
</g>
<g>
</g>
<g>
</g>
<g>
</g>
<g>
</g>
<g>
</g>
<g>
</g>
</svg>
