<?xml version="1.0" encoding="iso-8859-1"?>
<!-- Generator: Adobe Illustrator 16.0.4, SVG Export Plug-In . SVG Version: 6.00 Build 0)  -->
<!DOCTYPE svg PUBLIC "-//W3C//DTD SVG 1.1//EN" "http://www.w3.org/Graphics/SVG/1.1/DTD/svg11.dtd">
<svg version="1.1" id="Capa_1" xmlns="http://www.w3.org/2000/svg" xmlns:xlink="http://www.w3.org/1999/xlink" x="0px" y="0px"
	 width="40px" height="35.947px" viewBox="0 0 40 35.947" style="enable-background:new 0 0 40 35.947;" xml:space="preserve">
<g id="_x37_9._Voice_Message">
	<g>
		<path d="M24.656,19.656l1.414,1.414c3.905-3.905,3.905-10.236,0-14.143l-1.414,1.415C27.781,11.467,27.781,16.532,24.656,19.656z
			 M23.242,18.242c2.344-2.343,2.344-6.142,0-8.485l-1.422,1.422c1.559,1.558,1.559,4.084,0,5.642L23.242,18.242z M36,0H4
			C1.79,0,0,1.79,0,3.999v20c0,2.209,1.79,4,4,4h6v6c0,2.209,1.113,2.598,2.486,0.867l5.45-6.867H36c2.209,0,4-1.791,4-4v-20
			C40,1.79,38.209,0,36,0z M36,23.999H4v-20h32V23.999z M13.688,17.982l4.625,2.943C19.244,21.519,20,21.104,20,19.999V8
			c0-1.105-0.756-1.52-1.688-0.927l-4.625,2.943C12.755,10.609,12,11.985,12,13.09v1.818C12,16.013,12.755,17.39,13.688,17.982z"/>
	</g>
</g>
<g>
</g>
<g>
</g>
<g>
</g>
<g>
</g>
<g>
</g>
<g>
</g>
<g>
</g>
<g>
</g>
<g>
</g>
<g>
</g>
<g>
</g>
<g>
</g>
<g>
</g>
<g>
</g>
<g>
</g>
</svg>
