<?xml version="1.0" encoding="iso-8859-1"?>
<!-- Generator: Adobe Illustrator 16.0.4, SVG Export Plug-In . SVG Version: 6.00 Build 0)  -->
<!DOCTYPE svg PUBLIC "-//W3C//DTD SVG 1.1//EN" "http://www.w3.org/Graphics/SVG/1.1/DTD/svg11.dtd">
<svg version="1.1" id="Capa_1" xmlns="http://www.w3.org/2000/svg" xmlns:xlink="http://www.w3.org/1999/xlink" x="0px" y="0px"
	 width="40px" height="37.947px" viewBox="0 0 40 37.947" style="enable-background:new 0 0 40 37.947;" xml:space="preserve">
<g id="_x38_0._Voice_Message">
	<g>
		<path d="M23.242,11.757l-1.422,1.422c1.559,1.558,1.559,4.084,0,5.642l1.422,1.422C25.586,17.899,25.586,14.101,23.242,11.757z
			 M20,0C8.954,0,0,7.163,0,15.999c0,5.919,4.027,11.074,9.999,13.842v6.158c0,2.21,1.114,2.598,2.487,0.867l4.186-5.105
			C17.757,31.906,18.863,32,20,32c11.045,0,20-7.164,20-16.001C40,7.163,31.045,0,20,0z M20,27.999c-8.837,0-16-5.372-16-12
			c0-6.627,7.163-12,16-12c8.836,0,16,5.373,16,12C36,22.627,28.836,27.999,20,27.999z M24.656,10.343
			c3.125,3.124,3.125,8.189,0,11.313l1.414,1.414c3.905-3.905,3.905-10.236,0-14.143L24.656,10.343z M18.312,9.073l-4.625,2.943
			C12.755,12.609,12,13.985,12,15.09v1.818c0,1.104,0.755,2.481,1.688,3.074l4.625,2.943C19.244,23.519,20,23.104,20,21.999V10
			C20,8.895,19.244,8.48,18.312,9.073z"/>
	</g>
</g>
<g>
</g>
<g>
</g>
<g>
</g>
<g>
</g>
<g>
</g>
<g>
</g>
<g>
</g>
<g>
</g>
<g>
</g>
<g>
</g>
<g>
</g>
<g>
</g>
<g>
</g>
<g>
</g>
<g>
</g>
</svg>
