<?xml version="1.0" encoding="iso-8859-1"?>
<!-- Generator: Adobe Illustrator 16.0.4, SVG Export Plug-In . SVG Version: 6.00 Build 0)  -->
<!DOCTYPE svg PUBLIC "-//W3C//DTD SVG 1.1//EN" "http://www.w3.org/Graphics/SVG/1.1/DTD/svg11.dtd">
<svg version="1.1" id="Capa_1" xmlns="http://www.w3.org/2000/svg" xmlns:xlink="http://www.w3.org/1999/xlink" x="0px" y="0px"
	 width="46px" height="37.947px" viewBox="0 0 46 37.947" style="enable-background:new 0 0 46 37.947;" xml:space="preserve">
<g id="_x37_2._Remove_Message">
	<g>
		<path d="M26.114,27.087c-1.885,0.585-3.948,0.912-6.114,0.912c-8.837,0-16-5.372-16-11.999C4,9.372,11.163,4,20,4
			c8.836,0,16,5.372,16,12c0,3.078-1.559,5.876-4.1,8h5.401C39.008,21.645,40,18.917,40,16c0-8.837-8.955-16-20-16
			C8.954,0,0,7.163,0,16c0,5.918,4.027,11.074,10,13.842v6.157c0,2.21,1.113,2.598,2.486,0.867l4.187-5.105
			C17.757,31.906,18.864,32,20,32c2.562,0,5.004-0.4,7.256-1.103C26.486,30.168,26,29.144,26,28
			C26,27.685,26.045,27.381,26.114,27.087z M42,25.999H29.999c-1.104,0-2,0.896-2,2s0.896,2,2,2H42c1.104,0,1.999-0.896,1.999-2
			S43.104,25.999,42,25.999z"/>
	</g>
</g>
<g>
</g>
<g>
</g>
<g>
</g>
<g>
</g>
<g>
</g>
<g>
</g>
<g>
</g>
<g>
</g>
<g>
</g>
<g>
</g>
<g>
</g>
<g>
</g>
<g>
</g>
<g>
</g>
<g>
</g>
</svg>
