<?xml version="1.0" encoding="iso-8859-1"?>
<!-- Generator: Adobe Illustrator 16.0.4, SVG Export Plug-In . SVG Version: 6.00 Build 0)  -->
<!DOCTYPE svg PUBLIC "-//W3C//DTD SVG 1.1//EN" "http://www.w3.org/Graphics/SVG/1.1/DTD/svg11.dtd">
<svg version="1.1" id="Capa_1" xmlns="http://www.w3.org/2000/svg" xmlns:xlink="http://www.w3.org/1999/xlink" x="0px" y="0px"
	 width="38.427px" height="38.428px" viewBox="0 0 38.427 38.428" style="enable-background:new 0 0 38.427 38.428;"
	 xml:space="preserve">
<g id="_x32_27._Phone">
	<g>
		<path d="M37.739,28.973l-8.485-8.485c-0.781-0.781-2.048-0.781-2.828,0l-2.829,2.828c-0.78,0.781-2.047,0.781-2.828,0
			l-5.657-5.656c-0.78-0.781-0.78-2.048,0-2.829l2.829-2.828c0.78-0.781,0.78-2.048,0-2.828L9.455,0.688
			C8.674-0.093,7.296-0.229,6.377,0.384L1.22,3.821C0.301,4.435-0.209,5.795,0.082,6.86c0,0,3.43,5.684,4.009,6.263l21.213,21.214
			c0.579,0.578,6.264,4.009,6.264,4.009c1.065,0.291,2.426-0.219,3.038-1.138l3.438-5.157
			C38.656,31.132,38.521,29.753,37.739,28.973z"/>
	</g>
</g>
<g>
</g>
<g>
</g>
<g>
</g>
<g>
</g>
<g>
</g>
<g>
</g>
<g>
</g>
<g>
</g>
<g>
</g>
<g>
</g>
<g>
</g>
<g>
</g>
<g>
</g>
<g>
</g>
<g>
</g>
</svg>
