<?xml version="1.0" encoding="iso-8859-1"?>
<!-- Generator: Adobe Illustrator 16.0.4, SVG Export Plug-In . SVG Version: 6.00 Build 0)  -->
<!DOCTYPE svg PUBLIC "-//W3C//DTD SVG 1.1//EN" "http://www.w3.org/Graphics/SVG/1.1/DTD/svg11.dtd">
<svg version="1.1" id="Capa_1" xmlns="http://www.w3.org/2000/svg" xmlns:xlink="http://www.w3.org/1999/xlink" x="0px" y="0px"
	 width="40px" height="34px" viewBox="0 0 40 34" style="enable-background:new 0 0 40 34;" xml:space="preserve">
<g id="_x34_25._Server">
	<g>
		<path d="M36,18H4c-2.209,0-4,1.791-4,4v8c0,2.209,1.791,4,4,4h32c2.209,0,4-1.791,4-4v-8C40,19.791,38.209,18,36,18z M36,30H4v-8
			h32V30z M32,10c1.104,0,2-0.896,2-2c0-1.105-0.896-2-2-2s-2,0.895-2,2C30,9.104,30.896,10,32,10z M36,0H4C1.791,0,0,1.79,0,4v8
			c0,2.209,1.791,4,4,4h32c2.209,0,4-1.791,4-4V4C40,1.79,38.209,0,36,0z M36,12H4V4h32V12z M32,28c1.104,0,2-0.896,2-2
			c0-1.105-0.896-2-2-2s-2,0.895-2,2C30,27.104,30.896,28,32,28z"/>
	</g>
</g>
<g>
</g>
<g>
</g>
<g>
</g>
<g>
</g>
<g>
</g>
<g>
</g>
<g>
</g>
<g>
</g>
<g>
</g>
<g>
</g>
<g>
</g>
<g>
</g>
<g>
</g>
<g>
</g>
<g>
</g>
</svg>
