<?xml version="1.0" encoding="iso-8859-1"?>
<!-- Generator: Adobe Illustrator 16.0.4, SVG Export Plug-In . SVG Version: 6.00 Build 0)  -->
<!DOCTYPE svg PUBLIC "-//W3C//DTD SVG 1.1//EN" "http://www.w3.org/Graphics/SVG/1.1/DTD/svg11.dtd">
<svg version="1.1" id="Capa_1" xmlns="http://www.w3.org/2000/svg" xmlns:xlink="http://www.w3.org/1999/xlink" x="0px" y="0px"
	 width="40px" height="30.438px" viewBox="0 0 40 30.438" style="enable-background:new 0 0 40 30.438;" xml:space="preserve">
<g id="_x33_52._Repeat">
	<g>
		<path d="M9.128,21.078C5.975,19.617,4,17.529,4,15.21c0-3.726,5.103-6.848,12-7.737V3.451C6.871,4.563,0,9.405,0,15.21
			c0,3.346,2.289,6.364,5.971,8.538C10,26.211,12,22.211,9.128,21.078z M33.146,6.181C31,4.211,28,7.211,30.046,8.984
			C33.677,10.451,36,12.695,36,15.21c0,3.727-5.104,6.849-12,7.738v4.021c9.129-1.111,16-5.953,16-11.759
			C40,11.605,37.341,8.379,33.146,6.181z M17.767,10.189l6.511-3.898c0.947-0.568,0.949-1.491,0.004-2.063l-6.57-3.976
			c-0.945-0.571-1.708-0.14-1.703,0.965l0.035,8C16.047,10.321,16.819,10.757,17.767,10.189z M22.288,20.252l-6.57,3.976
			c-0.945,0.572-0.943,1.495,0.005,2.063l6.51,3.898c0.947,0.567,1.72,0.132,1.725-0.973l0.034-8
			C23.996,20.112,23.233,19.681,22.288,20.252z"/>
	</g>
</g>
<g>
</g>
<g>
</g>
<g>
</g>
<g>
</g>
<g>
</g>
<g>
</g>
<g>
</g>
<g>
</g>
<g>
</g>
<g>
</g>
<g>
</g>
<g>
</g>
<g>
</g>
<g>
</g>
<g>
</g>
</svg>
