<?xml version="1.0" encoding="iso-8859-1"?>
<!-- Generator: Adobe Illustrator 16.0.4, SVG Export Plug-In . SVG Version: 6.00 Build 0)  -->
<!DOCTYPE svg PUBLIC "-//W3C//DTD SVG 1.1//EN" "http://www.w3.org/Graphics/SVG/1.1/DTD/svg11.dtd">
<svg version="1.1" id="Capa_1" xmlns="http://www.w3.org/2000/svg" xmlns:xlink="http://www.w3.org/1999/xlink" x="0px" y="0px"
	 width="42px" height="40px" viewBox="0 0 42 40" style="enable-background:new 0 0 42 40;" xml:space="preserve">
<g id="_x33_46._CD_Cover">
	<g>
		<path d="M20,0H4C1.791,0,0,1.791,0,4.001V36c0,2.21,1.791,4,4,4h16c2.209,0,4-1.79,4-4v-5.999c-5.522,0-10-4.478-10-10.001
			c0-5.522,4.478-9.999,10-9.999v-6C24,1.791,22.209,0,20,0z M20,6.589C14.218,8.311,10,13.659,10,20c0,6.342,4.218,11.69,10,13.413
			v2.588H4v-32h16V6.589z M26,2.118V14.35c2.329,0.824,4,3.039,4,5.65c0,2.612-1.671,4.827-4,5.651v12.231
			C34.999,36.887,42,29.265,42,20C42,10.736,34.999,3.114,26,2.118z"/>
	</g>
</g>
<g>
</g>
<g>
</g>
<g>
</g>
<g>
</g>
<g>
</g>
<g>
</g>
<g>
</g>
<g>
</g>
<g>
</g>
<g>
</g>
<g>
</g>
<g>
</g>
<g>
</g>
<g>
</g>
<g>
</g>
</svg>
