<?xml version="1.0" encoding="iso-8859-1"?>
<!-- Generator: Adobe Illustrator 16.0.4, SVG Export Plug-In . SVG Version: 6.00 Build 0)  -->
<!DOCTYPE svg PUBLIC "-//W3C//DTD SVG 1.1//EN" "http://www.w3.org/Graphics/SVG/1.1/DTD/svg11.dtd">
<svg version="1.1" id="Capa_1" xmlns="http://www.w3.org/2000/svg" xmlns:xlink="http://www.w3.org/1999/xlink" x="0px" y="0px"
	 width="36px" height="25.999px" viewBox="0 0 36 25.999" style="enable-background:new 0 0 36 25.999;" xml:space="preserve">
<g id="_x33_55._Volume_Indicator">
	<g>
		<path d="M4,17.999H2c-1.104,0-2,0.896-2,2v4c0,1.105,0.896,2,2,2h2c1.104,0,2-0.895,2-2v-4C6,18.895,5.104,17.999,4,17.999z
			 M14,11.999h-2c-1.104,0-2,0.896-2,2v10c0,1.105,0.896,2,2,2h2c1.104,0,2-0.895,2-2v-10C16,12.895,15.104,11.999,14,11.999z
			 M24,5.999h-2c-1.104,0-2,0.896-2,2v16c0,1.105,0.896,2,2,2h2c1.104,0,2-0.895,2-2v-16C26,6.895,25.104,5.999,24,5.999z M34,0h-2
			c-1.104,0-2,0.895-2,2v21.999c0,1.105,0.896,2,2,2h2c1.104,0,2-0.895,2-2V2C36,0.895,35.104,0,34,0z"/>
	</g>
</g>
<g>
</g>
<g>
</g>
<g>
</g>
<g>
</g>
<g>
</g>
<g>
</g>
<g>
</g>
<g>
</g>
<g>
</g>
<g>
</g>
<g>
</g>
<g>
</g>
<g>
</g>
<g>
</g>
<g>
</g>
</svg>
