<?xml version="1.0" encoding="iso-8859-1"?>
<!-- Generator: Adobe Illustrator 16.0.4, SVG Export Plug-In . SVG Version: 6.00 Build 0)  -->
<!DOCTYPE svg PUBLIC "-//W3C//DTD SVG 1.1//EN" "http://www.w3.org/Graphics/SVG/1.1/DTD/svg11.dtd">
<svg version="1.1" id="Capa_1" xmlns="http://www.w3.org/2000/svg" xmlns:xlink="http://www.w3.org/1999/xlink" x="0px" y="0px"
	 width="36px" height="24px" viewBox="0 0 36 24" style="enable-background:new 0 0 36 24;" xml:space="preserve">
<g id="_x33_54._Volume_Indicator">
	<g>
		<path d="M2,15.999c-1.104,0-2,0.896-2,2v4C0,23.104,0.896,24,2,24s2-0.896,2-2.001v-4C4,16.895,3.104,15.999,2,15.999z M10,11.999
			c-1.104,0-2,0.896-2,2v8c0,1.105,0.896,2,2,2s2-0.895,2-2v-8C12,12.895,11.104,11.999,10,11.999z M18,7.999c-1.104,0-2,0.896-2,2
			v12c0,1.105,0.896,2,2,2s2-0.895,2-2v-12C20,8.895,19.104,7.999,18,7.999z M26,3.999c-1.104,0-2,0.896-2,2v16
			C24,23.104,24.896,24,26,24s2-0.896,2-2.001v-16C28,4.895,27.104,3.999,26,3.999z M34,0c-1.104,0-2,0.895-2,1.999v20
			C32,23.104,32.896,24,34,24s2-0.896,2-2.001v-20C36,0.895,35.104,0,34,0z"/>
	</g>
</g>
<g>
</g>
<g>
</g>
<g>
</g>
<g>
</g>
<g>
</g>
<g>
</g>
<g>
</g>
<g>
</g>
<g>
</g>
<g>
</g>
<g>
</g>
<g>
</g>
<g>
</g>
<g>
</g>
<g>
</g>
</svg>
