<?xml version="1.0" encoding="iso-8859-1"?>
<!-- Generator: Adobe Illustrator 16.0.4, SVG Export Plug-In . SVG Version: 6.00 Build 0)  -->
<!DOCTYPE svg PUBLIC "-//W3C//DTD SVG 1.1//EN" "http://www.w3.org/Graphics/SVG/1.1/DTD/svg11.dtd">
<svg version="1.1" id="Capa_1" xmlns="http://www.w3.org/2000/svg" xmlns:xlink="http://www.w3.org/1999/xlink" x="0px" y="0px"
	 width="40px" height="32.204px" viewBox="0 0 40 32.204" style="enable-background:new 0 0 40 32.204;" xml:space="preserve">
<g id="_x34_81._Gesture_-_Shake">
	<g>
		<path d="M0,16.103c0,4.83,1.86,8.983,5.975,10.886C4.162,24.422,3,20.501,3,16.103c0-4.399,1.162-8.32,2.975-10.887
			C1.86,7.118,0,11.271,0,16.103z M9.258,6.892C9.217,6.97,9.183,7.053,9.142,7.133c-0.28,0.556-0.535,1.124-0.763,1.709
			C8.307,9.028,8.241,9.217,8.173,9.405c-0.177,0.496-0.333,1-0.471,1.513c-0.062,0.229-0.124,0.456-0.177,0.688
			c-0.118,0.513-0.209,1.034-0.287,1.562c-0.033,0.222-0.076,0.439-0.102,0.664C7.053,14.578,7,15.333,7,16.103
			c0,0.768,0.053,1.523,0.137,2.27c0.026,0.225,0.069,0.442,0.102,0.664c0.078,0.527,0.169,1.049,0.287,1.562
			c0.054,0.231,0.116,0.46,0.177,0.688c0.138,0.513,0.294,1.017,0.471,1.513c0.067,0.188,0.133,0.377,0.206,0.563
			c0.228,0.584,0.483,1.153,0.763,1.709c0.041,0.08,0.075,0.162,0.116,0.242c1.418,2.725,3.448,5.079,5.901,6.891
			C12.583,27.943,11,22.308,11,16.103S12.583,4.261,15.16,0C12.706,1.812,10.677,4.165,9.258,6.892z M34.025,5.216
			C35.838,7.782,37,11.703,37,16.103c0,4.398-1.162,8.319-2.975,10.886C38.139,25.086,40,20.933,40,16.103
			C40,11.271,38.139,7.118,34.025,5.216z M32.761,13.168c-0.078-0.527-0.169-1.049-0.287-1.562c-0.054-0.232-0.116-0.46-0.177-0.688
			c-0.137-0.513-0.294-1.017-0.47-1.513c-0.068-0.188-0.133-0.377-0.207-0.563c-0.228-0.585-0.483-1.153-0.763-1.709
			c-0.04-0.08-0.075-0.163-0.116-0.241C29.323,4.165,27.293,1.812,24.84,0C27.417,4.261,29,9.897,29,16.103
			s-1.583,11.841-4.16,16.102c2.454-1.812,4.483-4.166,5.901-6.891c0.042-0.08,0.076-0.162,0.116-0.242
			c0.28-0.556,0.535-1.125,0.763-1.709c0.073-0.187,0.139-0.375,0.207-0.563c0.176-0.496,0.333-1,0.47-1.513
			c0.062-0.229,0.124-0.457,0.177-0.688c0.118-0.513,0.209-1.034,0.287-1.562c0.033-0.222,0.076-0.439,0.102-0.664
			C32.947,17.626,33,16.87,33,16.103c0-0.77-0.053-1.524-0.138-2.271C32.837,13.607,32.794,13.39,32.761,13.168z"/>
	</g>
</g>
<g>
</g>
<g>
</g>
<g>
</g>
<g>
</g>
<g>
</g>
<g>
</g>
<g>
</g>
<g>
</g>
<g>
</g>
<g>
</g>
<g>
</g>
<g>
</g>
<g>
</g>
<g>
</g>
<g>
</g>
</svg>
